# xmcd
#
# Track frame offsets:
#	155
#	3450
#	18710
#	24360
#	29850
#	33480
#	36735
#	44173
#	48203
#	53183
#	55983
#	143788
#	154479
#	190378
#	197092
#
# Disc length: 2668 seconds
#
# Revision: 1
# Processed by: cddbd v1.5.1PL0 Copyright (c) Steve Scherf et al.
# Submitted via: CDex 1.50Beta5
#
DISCID=e20a6a0f
DTITLE=小倉書店 - 新精選英会話基本の型と表現 Disc1
DYEAR=1900
DGENRE=Other
TTITLE0=Unit 1
TTITLE1=Unit 2
TTITLE2=Unit 3
TTITLE3=Unit 4
TTITLE4=Unit 5
TTITLE5=Unit 6
TTITLE6=Unit 7
TTITLE7=Unit 8
TTITLE8=Unit 9
TTITLE9=Unit 10
TTITLE10=Unit 11
TTITLE11=Unit 12
TTITLE12=Unit 13
TTITLE13=Unit 14
TTITLE14=Unit 15
EXTD=
EXTT0=
EXTT1=
EXTT2=
EXTT3=
EXTT4=
EXTT5=
EXTT6=
EXTT7=
EXTT8=
EXTT9=
EXTT10=
EXTT11=
EXTT12=
EXTT13=
EXTT14=
PLAYORDER=
